<svg xmlns="http://www.w3.org/2000/svg" viewBox="40 0 1680 1370" width="1600" height="1304">
<defs>
<marker id="arrow" markerWidth="10" markerHeight="10" refX="9" refY="3" orient="auto" markerUnits="strokeWidth">
<path d="M0,0 L0,6 L9,3 z" fill="#566070" />
</marker>
<filter id="shadow" x="-10%" y="-10%" width="120%" height="120%">
<feDropShadow dx="0" dy="2" stdDeviation="3" flood-color="#162033" flood-opacity="0.12" />
</filter>
</defs>
<rect x="40" y="0" width="1680" height="1370" fill="#fbfbf8" />
<line x1="420" y1="345" x2="470" y2="345" stroke="#566070" stroke-width="3" marker-end="url(#arrow)" />
<line x1="640" y1="345" x2="690" y2="345" stroke="#566070" stroke-width="3" marker-end="url(#arrow)" />
<line x1="1040" y1="345" x2="1090" y2="345" stroke="#566070" stroke-width="3" marker-end="url(#arrow)" />
<line x1="1270" y1="345" x2="1320" y2="345" stroke="#566070" stroke-width="3" marker-end="url(#arrow)" />
<line x1="1490" y1="470" x2="1350" y2="900" stroke="#566070" stroke-width="3" marker-end="url(#arrow)" />
<line x1="1260" y1="960" x2="1200" y2="1205" stroke="#566070" stroke-width="3" marker-end="url(#arrow)" />
<line x1="1500" y1="600" x2="1490" y2="470" stroke="#566070" stroke-width="3" marker-end="url(#arrow)" />
<rect x="80" y="40" width="420" height="100" rx="10" fill="#fff1f0" stroke="#d4380d" stroke-width="2" filter="url(#shadow)" />
<text x="98" y="70" fill="#1f2933" font-family="Arial, sans-serif" font-size="17">
<tspan x="98" dy="0">项目整体架构</tspan>
<tspan x="98" dy="22">总览版</tspan>
</text>
<rect x="80" y="220" width="340" height="250" rx="10" fill="#f6ffed" stroke="#389e0d" stroke-width="2" filter="url(#shadow)" />
<text x="98" y="250" fill="#1f2933" font-family="Arial, sans-serif" font-size="17">
<tspan x="98" dy="0">原始 ChartQA 数据</tspan>
<tspan x="98" dy="22">• 图像 + 问题 + 答案</tspan>
<tspan x="98" dy="22">• bbox / 图类型</tspan>
</text>
<rect x="470" y="285" width="170" height="120" rx="10" fill="#e6f4ff" stroke="#0958d9" stroke-width="2" filter="url(#shadow)" />
<text x="488" y="315" fill="#1f2933" font-family="Arial, sans-serif" font-size="17">
<tspan x="488" dy="0">◇</tspan>
<tspan x="488" dy="22">preprocess.py</tspan>
<tspan x="488" dy="22">样本定型</tspan>
</text>
<rect x="690" y="210" width="350" height="270" rx="10" fill="#f6ffed" stroke="#389e0d" stroke-width="2" filter="url(#shadow)" />
<text x="708" y="240" fill="#1f2933" font-family="Arial, sans-serif" font-size="17">
<tspan x="708" dy="0">parquet 训练数据</tspan>
<tspan x="708" dy="22">• prompt / answer</tspan>
<tspan x="708" dy="22">• images / metadata</tspan>
</text>
<rect x="1090" y="285" width="180" height="120" rx="10" fill="#e6f4ff" stroke="#0958d9" stroke-width="2" filter="url(#shadow)" />
<text x="1108" y="315" fill="#1f2933" font-family="Arial, sans-serif" font-size="17">
<tspan x="1108" dy="0">◇</tspan>
<tspan x="1108" dy="22">Jinja + processor</tspan>
<tspan x="1108" dy="22">准备输入</tspan>
</text>
<rect x="1320" y="220" width="340" height="250" rx="10" fill="#f6ffed" stroke="#389e0d" stroke-width="2" filter="url(#shadow)" />
<text x="1338" y="250" fill="#1f2933" font-family="Arial, sans-serif" font-size="17">
<tspan x="1338" dy="0">vLLM rollout</tspan>
<tspan x="1338" dy="22">• first rollout</tspan>
<tspan x="1338" dy="22">• second rollout 可选</tspan>
</text>
<rect x="1320" y="600" width="360" height="250" rx="10" fill="#f0f5ff" stroke="#1d39c4" stroke-width="2" filter="url(#shadow)" />
<text x="1338" y="630" fill="#1f2933" font-family="Arial, sans-serif" font-size="17">
<tspan x="1338" dy="0">Tool-use Agent 系统</tspan>
<tspan x="1338" dy="22">• 行为原型层</tspan>
<tspan x="1338" dy="22">• 提供 THOUGHT / ACTION /</tspan>
<tspan x="1338" dy="22">OBSERVATION 范式</tspan>
</text>
<rect x="1260" y="900" width="180" height="120" rx="10" fill="#e6f4ff" stroke="#0958d9" stroke-width="2" filter="url(#shadow)" />
<text x="1278" y="930" fill="#1f2933" font-family="Arial, sans-serif" font-size="17">
<tspan x="1278" dy="0">◇</tspan>
<tspan x="1278" dy="22">refocus + GRPO</tspan>
<tspan x="1278" dy="22">评分与更新</tspan>
</text>
<rect x="850" y="1080" width="350" height="250" rx="10" fill="#f9f0ff" stroke="#722ed1" stroke-width="2" filter="url(#shadow)" />
<text x="868" y="1110" fill="#1f2933" font-family="Arial, sans-serif" font-size="17">
<tspan x="868" dy="0">更新后的 actor</tspan>
<tspan x="868" dy="22">• 更稳定的 tool use</tspan>
<tspan x="868" dy="22">• 进入下一轮训练</tspan>
</text>
</svg>
